HIERARCHY
ROOT Hips
{
	OFFSET 0.00000 0.00000 0.00000
	CHANNELS 6 Xposition Yposition Zposition Zrotation Yrotation Xrotation 
	JOINT LHipJoint
	{
		OFFSET 0 0 0
		CHANNELS 3 Zrotation Yrotation Xrotation
		JOINT LeftHip
		{
			OFFSET 1.54859 -1.61379 0.86856
			CHANNELS 3 Zrotation Yrotation Xrotation
			JOINT LeftKnee
			{
				OFFSET 2.25087 -6.18423 0.00000
				CHANNELS 3 Zrotation Yrotation Xrotation
				JOINT LeftAnkle
				{
					OFFSET 2.40328 -6.60297 0.00000
					CHANNELS 3 Zrotation Yrotation Xrotation
					JOINT LeftToe
					{
						OFFSET 0.17435 -0.47901 2.02453
						CHANNELS 3 Zrotation Yrotation Xrotation
						End Site
						{
							OFFSET 0.00000 -0.00000 1.04844
						}
					}
				}
			}
		}
	}
	JOINT RHipJoint
	{
		OFFSET 0 0 0
		CHANNELS 3 Zrotation Yrotation Xrotation
		JOINT RightHip
		{
			OFFSET -1.54669 -1.61379 0.86856
			CHANNELS 3 Zrotation Yrotation Xrotation
			JOINT RightKnee
			{
				OFFSET -2.28132 -6.26789 0.00000
				CHANNELS 3 Zrotation Yrotation Xrotation
				JOINT RightAnkle
				{
					OFFSET -2.51636 -6.91365 0.00000
					CHANNELS 3 Zrotation Yrotation Xrotation
					JOINT RightToe
					{
						OFFSET -0.15124 -0.41552 2.21090
						CHANNELS 3 Zrotation Yrotation Xrotation
						End Site
						{
							OFFSET -0.00000 -0.00000 1.13399
						}
					}
				}
			}
		}
	}
	JOINT lowerback
	{
		OFFSET 0 0 0
		CHANNELS 3 Zrotation Yrotation Xrotation
		JOINT Chest
		{
			OFFSET -0.04287 2.26161 -0.25690
			CHANNELS 3 Zrotation Yrotation Xrotation
			JOINT Chest2
			{
				OFFSET 0.02248 2.28395 -0.10140
				CHANNELS 3 Zrotation Yrotation Xrotation
				JOINT lowerneck
				{
					OFFSET 0 0 0
					CHANNELS 3 Zrotation Yrotation Xrotation
					JOINT Neck
					{
						OFFSET -0.11644 1.38496 0.11345
						CHANNELS 3 Zrotation Yrotation Xrotation
						JOINT Head
						{
							OFFSET 0.29383 1.36600 0.06642
							CHANNELS 3 Zrotation Yrotation Xrotation
							End Site
							{
								OFFSET 0.11075 1.41395 -0.00294
							}
						}
					}
				}
				JOINT LeftCollar
				{
					OFFSET 0 0 0
					CHANNELS 3 Zrotation Yrotation Xrotation
					JOINT LeftShoulder
					{
						OFFSET 3.51628 0.59542 -0.30346
CHANNELS 3 Zrotation Xrotation Yrotation
						JOINT LeftElbow
						{
OFFSET 0 -4.764050 0.000000
CHANNELS 3 Zrotation Xrotation Yrotation
							JOINT LeftWrist
							{
OFFSET 0 -3.137590 -0.000000
CHANNELS 3 Zrotation Xrotation Yrotation
								JOINT lhand
								{
									OFFSET 0 0 0
CHANNELS 3 Zrotation Xrotation Yrotation
									JOINT LFingers
									{
OFFSET 0 -0.732260 -0.000000
CHANNELS 3 Zrotation Xrotation Yrotation
										End Site
										{
OFFSET 0 -0.590370 -0.000000
										}
									}
								}
								JOINT LThumb
								{
OFFSET 0 0.000000 0.000000
CHANNELS 3 Zrotation Xrotation Yrotation
									End Site
									{
OFFSET 0 -0.599380 0.599380
									}
								}
							}
						}
					}
				}
				JOINT RightCollar
				{
					OFFSET 0 0 0
					CHANNELS 3 Zrotation Yrotation Xrotation
					JOINT RightShoulder
					{
						OFFSET -3.30990 0.84213 -0.36430
CHANNELS 3 Zrotation Xrotation Yrotation
						JOINT RightElbow
						{
OFFSET 0 -5.101610 -0.000000
CHANNELS 3 Zrotation Xrotation Yrotation
							JOINT RightWrist
							{
OFFSET 0 -3.232670 -0.000000
CHANNELS 3 Zrotation Xrotation Yrotation
								JOINT rhand
								{
									OFFSET 0 0 0
CHANNELS 3 Zrotation Xrotation Yrotation
									JOINT RFingers
									{
OFFSET 0 -0.702000 -0.000000
CHANNELS 3 Zrotation Xrotation Yrotation
										End Site
										{
OFFSET 0 -0.565970 -0.000000
										}
									}
								}
								JOINT RThumb
								{
OFFSET 0 0.000000 0.000000
CHANNELS 3 Zrotation Xrotation Yrotation
									End Site
									{
OFFSET 0 -0.574610 0.574610
									}
								}
							}
						}
					}
				}
			}
		}
	}
}
MOTION
Frames: 12
Frame Time: .0083333
-32.1048 14.5001 -10.1968 47.9301 69.5139 51.5379 0.0000 0.0000 0.0000 -21.2299 10.2020 -7.5348 5.7661 14.1978 44.0355 -0.1572 -16.0839 -9.5935 5.7215 -14.1529 -43.8534 0.0000 0.0000 0.0000 15.2012 11.6445 -46.2320 -25.4828 -19.2634 106.2222 0.0819 -9.3657 -11.7891 -1.2866 7.1877 -20.2726 -13.8262 -5.0758 22.8823 -0.9471 -9.0145 7.7740 8.7051 -4.4535 -1.9273 -12.1054 -3.9891 -3.6876 18.0683 -2.7616 -17.6209 7.8644 -1.3770 -3.9767 0.0000 -0.0000 0.0000 -2.4292 -4.6231 -33.7323 65.4570 -57.5969 38.9166 38.2259 0.3222 -23.5207 0.0 0.0 0.0 -7.1250 0.0 0.0 10.5301 58.6577 -3.5413 0.0000 -0.0000 0.0000 -12.1479 -2.797 -12.8074 -116.0599 -57.2716 -82.3618 -27.2536 -46.2497 -26.8465 0.0 0.0 0.0 7.1250 0.0 -0.0 1.6728 0.3354 1.6637
-31.5150 14.5778 -9.9780 46.3274 69.0456 50.5144 0.0000 0.0000 0.0000 -20.4638 11.1769 -4.5581 5.0592 13.4501 41.0777 -0.4250 -15.4322 -5.3943 3.6337 -11.6564 -34.5270 0.0000 0.0000 0.0000 15.1626 14.0121 -48.5567 -24.2471 -19.5619 102.5055 0.0143 -9.3140 -13.0169 -0.7424 5.5039 -15.3516 -14.0353 -5.3784 21.8587 -0.7544 -9.3722 7.4382 8.9750 -4.6707 -1.6300 -12.5908 -3.4589 -3.9224 17.7403 -2.1446 -16.8793 7.8117 -1.0161 -3.8201 -0.0000 -0.0000 0.0000 -0.9684 -4.2702 -34.8841 68.7415 -58.2216 41.6995 39.5494 1.2636 -20.9557 0.0 0.0 0.0 -7.1250 0.0 0.0 12.1403 55.9786 -3.3044 -0.0000 -0.0000 0.0000 -11.21 -2.7125 -10.3589 -118.9770 -56.5764 -84.8064 -28.0658 -46.4484 -26.0501 0.0 0.0 0.0 7.1250 0.0 -0.0 1.0659 0.9997 1.0473
-30.9274 14.6444 -9.7730 45.3169 68.3229 50.1721 0.0000 0.0000 0.0000 -20.1773 11.9237 -1.5634 4.2922 12.5394 37.6678 -0.5115 -13.8461 -1.1516 2.8111 -10.3827 -30.2252 0.0000 0.0000 0.0000 14.5499 15.9393 -50.6595 -22.8704 -19.8013 98.4193 0.0017 -9.3345 -13.2706 -0.8425 5.8546 -16.3632 -14.5186 -5.6892 20.8136 -0.4948 -9.7980 7.0009 9.4653 -4.9236 -1.3407 -12.9974 -2.8942 -4.0368 17.0534 -1.5038 -16.3809 7.6360 -0.6425 -3.7745 0.0000 -0.0000 0.0000 0.1506 -3.5841 -35.7146 72.4059 -58.7974 44.8246 40.3445 1.0793 -18.3349 0.0 0.0 0.0 -7.1250 0.0 0.0 12.9124 53.0182 -2.5814 0.0000 -0.0000 0.0000 -10.2427 -2.7578 -7.8038 -121.5809 -55.8737 -86.971 -29.1153 -46.1466 -25.7663 0.0 0.0 0.0 7.1250 0.0 -0.0 0.3938 1.0593 0.3865
-30.3270 14.7170 -9.5555 43.2024 67.3699 49.0575 0.0000 0.0000 0.0000 -19.8706 12.6173 1.3396 3.5068 11.4735 33.8940 -0.4651 -12.0693 2.9073 2.7433 -10.2674 -29.8469 0.0000 0.0000 0.0000 13.9474 18.1570 -52.7072 -21.3865 -19.9538 94.0569 0.0231 -9.0222 -12.4271 -1.3373 7.3222 -20.6736 -14.2541 -6.0488 19.0637 -0.8033 -10.0433 6.6971 8.7933 -5.0806 -0.8349 -12.5584 -2.4048 -4.4271 16.4881 -0.9339 -15.6760 7.3398 -0.3445 -3.6102 0.0000 0.0000 0.0000 2.3639 -2.4313 -36.6935 76.8549 -59.3369 48.6413 40.1158 0.6203 -16.956 0.0 0.0 0.0 -7.1250 0.0 0.0 12.5563 51.2883 -1.9712 0.0000 0.0000 0.0000 -7.9952 -2.7892 -5.1365 -123.9619 -55.1583 -88.9337 -30.3015 -44.9687 -25.9516 0.0 0.0 0.0 7.1250 0.0 -0.0 -0.2831 0.5701 -0.2803
-29.7133 14.7973 -9.3255 40.8542 66.0998 47.7168 0.0000 0.0000 0.0000 -19.8651 13.1020 4.5358 2.7109 10.2117 29.6651 -0.3548 -10.7023 6.2132 3.3882 -11.2985 -33.2932 0.0000 0.0000 0.0000 13.2725 20.2336 -54.4298 -19.7628 -19.9987 89.3064 0.0697 -8.4939 -10.6368 -2.1626 9.1969 -26.4131 -14.9964 -6.0595 17.2371 -0.3830 -9.9721 6.3616 9.3898 -5.1465 -0.0455 -12.6939 -1.9249 -4.8573 15.4120 -0.4242 -15.0587 6.9834 -0.0285 -3.4606 -0.0000 0.0000 0.0000 3.1659 -1.3717 -37.8466 80.8890 -59.684 52.118 40.1352 0.6027 -15.9771 0.0 0.0 0.0 -7.1250 0.0 0.0 12.4978 50.0936 -1.591 -0.0000 0.0000 0.0000 -7.1074 -3.0394 -2.47 -125.9398 -54.5073 -90.5507 -31.4815 -43.2231 -26.1779 0.0 0.0 0.0 7.1250 0.0 -0.0 -0.9439 0.0231 -0.9436
-29.0871 14.8794 -9.0959 39.0311 65.0449 47.1307 0.0000 0.0000 0.0000 -20.2044 12.6611 7.8368 1.9724 8.8083 25.1974 0.1443 -4.7013 10.4310 1.8732 -8.5968 -24.5420 0.0000 0.0000 0.0000 12.7253 21.6759 -56.1125 -18.0002 -19.9038 84.1441 0.0411 -7.5800 -9.8576 -2.4483 9.7434 -28.1496 -15.1026 -6.2934 15.2836 -0.1133 -10.0747 5.9160 9.4901 -5.2614 0.5926 -12.6548 -1.5392 -5.6473 14.4353 -0.0191 -14.0755 6.6252 0.2307 -3.1210 -0.0000 -0.0000 0.0000 4.1253 -0.3004 -39.0368 84.1759 -59.8714 54.9583 40.8024 0.8506 -15.6237 0.0 0.0 0.0 -7.1250 0.0 0.0 13.1673 49.7943 -1.5806 -0.0000 -0.0000 0.0000 -6.0707 -2.9774 0.5199 -127.9789 -53.7788 -92.2034 -32.6921 -41.1915 -26.3522 0.0 0.0 0.0 7.1250 0.0 -0.0 -1.6263 -0.4908 -1.6409
-28.4664 14.9596 -8.8902 37.6245 64.0734 45.7325 0.0000 0.0000 0.0000 -20.8285 11.9653 12.7268 1.3275 7.2964 20.5965 0.2438 -0.3041 9.4416 1.8566 -8.5608 -24.4309 0.0000 0.0000 0.0000 12.8142 22.0810 -56.1931 -16.1141 -19.6340 78.5713 -0.0364 -6.3446 -9.9423 -2.4555 9.7566 -28.1922 -15.0866 -6.3250 14.7229 0.0041 -10.0540 5.7873 9.5342 -5.2698 0.7627 -12.5091 -1.2415 -6.4247 13.5340 0.2820 -13.0800 6.2834 0.4226 -2.7604 0.0000 -0.0000 0.0000 5.1175 0.4849 -40.5144 86.4512 -59.9524 56.9271 41.592 0.9828 -15.7929 0.0 0.0 0.0 -7.1250 0.0 0.0 14.0214 50.1678 -1.8174 0.0000 -0.0000 0.0000 -5.1966 -2.6688 3.8201 -130.0338 -52.9818 -93.8529 -34.4242 -38.7583 -26.3393 0.0 0.0 0.0 7.1250 0.0 -0.0 -2.6452 -0.9628 -2.6921
-27.8511 15.0106 -8.6954 36.7878 63.2401 44.9121 0.0000 0.0000 0.0000 -21.7011 11.2732 17.7454 0.8000 5.7088 15.9419 0.1470 4.4434 7.0350 2.0242 -8.9164 -25.5340 0.0000 0.0000 0.0000 13.1316 21.7895 -56.0795 -14.1946 -19.1720 72.7979 -0.0874 -5.4135 -9.9685 -3.0252 10.7357 -31.3937 -15.2128 -6.4828 14.3380 0.2958 -10.2618 5.5015 9.8911 -5.3827 0.7928 -12.4692 -0.8520 -7.1690 12.5067 0.6979 -11.9483 5.9274 0.6686 -2.3797 -0.0000 0.0000 0.0000 5.5011 2.685 -41.4826 91.0069 -59.9962 60.872 41.9875 0.7052 -15.8974 0.0 0.0 0.0 -7.1250 0.0 0.0 14.4567 50.3821 -1.9532 -0.0000 0.0000 0.0000 -4.9599 -2.2888 7.7187 -131.7932 -52.2462 -95.2509 -36.1845 -35.9201 -26.5147 0.0 0.0 0.0 7.1250 0.0 -0.0 -3.6355 -1.6848 -3.7482
-27.2318 15.0470 -8.4989 36.7979 62.3780 45.0826 0.0000 0.0000 0.0000 -22.8062 11.1411 22.4022 0.4084 4.1023 11.3646 -0.0873 9.9410 5.3867 2.1785 -9.2284 -26.5124 0.0000 0.0000 0.0000 12.9919 21.1117 -56.1210 -12.2945 -18.5124 66.9193 -0.2228 -3.2541 -10.7260 -2.0247 8.9173 -25.5368 -15.4441 -6.7130 13.6101 0.4724 -10.5202 5.2381 10.1200 -5.5379 1.0476 -12.2590 -0.4854 -7.8940 11.4895 1.0970 -10.8776 5.5569 0.8907 -2.0116 -0.0000 0.0000 0.0000 5.8285 4.5278 -42.5439 94.1701 -59.9342 63.6106 42.0989 -0.1503 -15.9236 0.0 0.0 0.0 -7.1250 0.0 0.0 14.5798 50.4386 -1.991 -0.0000 0.0000 0.0000 -4.8201 -2.0917 11.7547 -133.4516 -51.5049 -96.5556 -37.2902 -33.2431 -27.3212 0.0 0.0 0.0 7.1250 0.0 -0.0 -4.0996 -2.9426 -4.3155
-26.6140 15.0832 -8.3007 37.5584 61.3726 44.9887 0.0000 0.0000 0.0000 -23.3477 13.0107 27.3716 0.1521 2.5131 6.9260 -0.3125 13.7923 5.2654 2.4405 -9.7288 -28.1030 0.0000 0.0000 0.0000 13.1203 19.6773 -55.0737 -10.4706 -17.6661 61.0500 -0.2980 -1.4737 -10.9565 -1.3890 7.4568 -21.0758 -16.0468 -6.7038 13.6627 0.3746 -10.5659 5.4231 10.3201 -5.6033 1.3414 -12.0784 -0.2147 -8.4787 10.8491 1.4270 -10.2401 5.3224 1.0691 -1.7759 -0.0000 0.0000 0.0000 6.238 5.9719 -43.6871 96.5616 -59.8367 65.6794 42.0233 -1.2535 -15.8619 0.0 0.0 0.0 -7.1250 0.0 0.0 14.4905 50.3454 -1.9447 -0.0000 0.0000 0.0000 -4.738 -2.1671 15.9394 -134.9286 -50.8034 -97.706 -38.0863 -30.022 -28.2182 0.0 0.0 0.0 7.1250 0.0 -0.0 -4.3504 -4.2167 -4.6716
-26.0072 15.1227 -8.0871 37.8047 60.3312 45.4311 0.0000 0.0000 0.0000 -23.3902 14.8387 32.5565 0.0000 0.0000 0.0000 -0.4676 17.6795 7.4080 2.4224 -9.6954 -27.9960 0.0000 0.0000 0.0000 13.3018 18.6601 -55.0109 -8.7614 -16.6517 55.2614 -0.2939 -0.2831 -10.3457 -1.1884 6.9179 -19.4723 -16.6162 -6.7410 13.0273 0.5402 -10.6216 5.1241 10.7277 -5.6566 1.5202 -12.0248 0.1026 -8.4994 10.3044 1.7979 -9.9729 5.1416 1.2553 -1.7408 0.0000 -0.0000 0.0000 6.1518 7.9528 -44.6302 98.7387 -59.7095 67.5605 41.8 -2.4874 -15.5273 0.0 0.0 0.0 -7.1250 0.0 0.0 14.2091 49.8804 -1.7407 0.0000 -0.0000 0.0000 -5.2999 -2.0783 20.488 -135.8805 -50.3298 -98.4411 -38.8504 -25.6021 -28.7895 0.0 0.0 0.0 7.1250 0.0 -0.0 -4.6467 -5.1238 -5.0591
-25.4163 15.1644 -7.8683 38.3206 59.2710 46.2252 0.0000 0.0000 0.0000 -24.3102 15.3520 33.7511 0.0000 0.0000 0.0000 -0.5434 18.8989 7.8376 2.2265 -9.3227 -26.8100 0.0000 0.0000 0.0000 13.4494 17.5529 -55.0010 -7.2403 -15.5309 49.7774 -0.2598 0.8232 -9.3712 -0.9196 6.1097 -17.1031 -17.3052 -6.7448 12.2399 0.6394 -10.5925 4.9611 11.0871 -5.6932 1.9197 -11.9509 0.3309 -8.4399 10.0072 2.0892 -10.1564 5.0375 1.4029 -1.8380 -0.0000 0.0000 0.0000 6.1147 9.5433 -45.6305 100.0485 -59.615 68.691 41.3462 -3.7369 -15.0804 0.0 0.0 0.0 -7.1250 0.0 0.0 13.6772 49.2298 -1.4511 -0.0000 0.0000 0.0000 -5.9114 -2.5722 24.9255 -136.2569 -50.1377 -98.7304 -39.3045 -20.2519 -29.103 0.0 0.0 0.0 7.1250 0.0 -0.0 -4.8250 -5.6382 -5.2937
